<?xml version="1.0" encoding="UTF-8"?>
<svg id="Camada_1" data-name="Camada 1" xmlns="http://www.w3.org/2000/svg" viewBox="0 0 122.06 122.06">
  <defs>
    <style>
      .cls-1 {
        fill: #7e2939;
      }
    </style>
  </defs>
  <path class="cls-1" d="M55.64,95.13h10.77v-28.72h28.72v-10.77h-28.72v-28.72h-10.77v28.72h-28.72v10.77h28.72v28.72ZM12.98,122.06c-3.63,0-6.7-1.26-9.21-3.77-2.51-2.51-3.77-5.58-3.77-9.21V12.98c0-3.63,1.26-6.7,3.77-9.21S9.35,0,12.98,0h96.1c3.63,0,6.7,1.26,9.21,3.77,2.51,2.51,3.77,5.58,3.77,9.21v96.1c0,3.63-1.26,6.7-3.77,9.21-2.51,2.51-5.58,3.77-9.21,3.77H12.98ZM12.98,111.29h96.1c.55,0,1.06-.23,1.52-.69.46-.46.69-.97.69-1.52V12.98c0-.55-.23-1.06-.69-1.52-.46-.46-.97-.69-1.52-.69H12.98c-.55,0-1.06.23-1.52.69-.46.46-.69.97-.69,1.52v96.1c0,.55.23,1.06.69,1.52.46.46.97.69,1.52.69Z"/>
</svg>