<svg width="43" height="43" viewBox="0 0 43 43" fill="none" xmlns="http://www.w3.org/2000/svg">
<path d="M12.2857 30.7147V13.5147V18.8354V18.1928V30.7147ZM15.05 23.0362H21.5307C21.5639 22.7038 21.6368 22.3841 21.7494 22.077C21.8618 21.7698 22.0016 21.4753 22.1687 21.1933H15.05V23.0362ZM15.05 27.9504H19.6003C19.8776 27.6353 20.1864 27.3695 20.5267 27.1531C20.8668 26.9365 21.2235 26.7581 21.5968 26.6181C21.5464 26.5423 21.5023 26.4604 21.4644 26.3723C21.4267 26.2841 21.3953 26.1958 21.3701 26.1076H15.05V27.9504ZM15.05 18.1219H26.7214V16.279H15.05V18.1219ZM12.6638 32.5576C12.0432 32.5576 11.5179 32.3426 11.0879 31.9126C10.6579 31.4826 10.4429 30.9573 10.4429 30.3366V13.8928C10.4429 13.2722 10.6579 12.7469 11.0879 12.3169C11.5179 11.8869 12.0432 11.6719 12.6638 11.6719H29.1076C29.7283 11.6719 30.2536 11.8869 30.6836 12.3169C31.1136 12.7469 31.3286 13.2722 31.3286 13.8928V20.5649C31.097 20.19 30.8296 19.8588 30.5263 19.5713C30.2233 19.2838 29.8764 19.0385 29.4857 18.8354V13.8928C29.4857 13.7982 29.4463 13.7116 29.3675 13.633C29.2889 13.5541 29.2022 13.5147 29.1076 13.5147H12.6638C12.5692 13.5147 12.4826 13.5541 12.404 13.633C12.3251 13.7116 12.2857 13.7982 12.2857 13.8928V30.3366C12.2857 30.4312 12.3251 30.5179 12.404 30.5965C12.4826 30.6753 12.5692 30.7147 12.6638 30.7147H18.4664C18.4539 30.7903 18.4445 30.8658 18.4381 30.9414C18.4318 31.0172 18.4286 31.0928 18.4286 31.1684V32.5576H12.6638ZM26.9576 26.4147C26.1922 26.4147 25.5402 26.1454 25.0014 25.6066C24.4627 25.0679 24.1933 24.4158 24.1933 23.6504C24.1933 22.8848 24.4627 22.2328 25.0014 21.6943C25.5402 21.1555 26.1922 20.8862 26.9576 20.8862C27.7232 20.8862 28.3753 21.1555 28.9138 21.6943C29.4526 22.2328 29.7219 22.8848 29.7219 23.6504C29.7219 24.4158 29.4526 25.0679 28.9138 25.6066C28.3753 26.1454 27.7232 26.4147 26.9576 26.4147ZM21.1219 32.5576V31.1447C21.1219 30.7084 21.2341 30.3079 21.4585 29.9432C21.6832 29.5787 21.9994 29.3161 22.4073 29.1554C23.1207 28.8562 23.8598 28.6318 24.6246 28.4821C25.3894 28.3324 26.1671 28.2576 26.9576 28.2576C27.7327 28.2576 28.5025 28.3324 29.267 28.4821C30.0318 28.6318 30.7789 28.8562 31.5083 29.1554C31.9161 29.3161 32.2323 29.5787 32.4567 29.9432C32.6811 30.3079 32.7934 30.7084 32.7934 31.1447V32.5576H21.1219Z" fill="#7D2838"/>
</svg>
