<?xml version="1.0" encoding="UTF-8"?>
<svg id="Camada_1" data-name="Camada 1" xmlns="http://www.w3.org/2000/svg" viewBox="0 0 130.62 122.06">
  <defs>
    <style>
      .cls-1 {
        fill: #7e2939;
      }
    </style>
  </defs>
  <path class="cls-1" d="M10.77,111.29V10.77v31.09-3.76,73.18ZM26.92,66.41h37.87c.19-1.94.62-3.81,1.28-5.61.66-1.8,1.47-3.52,2.45-5.16H26.92v10.77ZM26.92,95.13h26.59c1.62-1.84,3.43-3.39,5.41-4.66,1.99-1.27,4.07-2.31,6.25-3.13-.29-.44-.55-.92-.77-1.44-.22-.52-.4-1.03-.55-1.55H26.92v10.77ZM26.92,37.69h68.21v-10.77H26.92v10.77ZM12.98,122.06c-3.63,0-6.7-1.26-9.21-3.77-2.51-2.51-3.77-5.58-3.77-9.21V12.98c0-3.63,1.26-6.7,3.77-9.21C6.28,1.26,9.35,0,12.98,0h96.1c3.63,0,6.7,1.26,9.21,3.77,2.51,2.51,3.77,5.58,3.77,9.21v38.99c-1.35-2.19-2.92-4.13-4.69-5.81-1.77-1.68-3.8-3.11-6.08-4.3V12.98c0-.55-.23-1.06-.69-1.52-.46-.46-.97-.69-1.52-.69H12.98c-.55,0-1.06.23-1.52.69-.46.46-.69.97-.69,1.52v96.1c0,.55.23,1.06.69,1.52.46.46.97.69,1.52.69h33.91c-.07.44-.13.88-.17,1.32-.04.44-.06.88-.06,1.33v8.12H12.98ZM96.51,86.16c-4.47,0-8.28-1.57-11.43-4.72s-4.72-6.96-4.72-11.43,1.57-8.28,4.72-11.43c3.15-3.15,6.96-4.72,11.43-4.72s8.28,1.57,11.43,4.72c3.15,3.15,4.72,6.96,4.72,11.43s-1.57,8.28-4.72,11.43c-3.15,3.15-6.96,4.72-11.43,4.72ZM62.41,122.06v-8.26c0-2.55.66-4.89,1.97-7.02,1.31-2.13,3.16-3.66,5.54-4.6,4.17-1.75,8.49-3.06,12.96-3.93,4.47-.87,9.01-1.31,13.63-1.31s9.03.44,13.5,1.31c4.47.87,8.84,2.19,13.1,3.93,2.38.94,4.23,2.47,5.54,4.6,1.31,2.13,1.97,4.47,1.97,7.02v8.26H62.41Z"/>
</svg>