<svg width="31" height="31" viewBox="0 0 31 31" fill="none" xmlns="http://www.w3.org/2000/svg">
<path d="M14.581 21.462H16.4191L16.732 19.6986C17.1063 19.5909 17.4293 19.4634 17.7007 19.3159C17.9724 19.1687 18.239 18.9716 18.5006 18.7247L20.1998 19.3059L21.1311 17.7314L19.7822 16.5886C19.875 16.2045 19.9214 15.8419 19.9214 15.5007C19.9214 15.1594 19.875 14.7968 19.7822 14.4127L21.1311 13.2699L20.1998 11.6954L18.5006 12.2767C18.239 12.0297 17.9724 11.8326 17.7007 11.6854C17.4293 11.5379 17.1063 11.4104 16.732 11.3027L16.4191 9.53929H14.581L14.2681 11.3027C13.8937 11.4104 13.5708 11.5379 13.2994 11.6854C13.0277 11.8326 12.7611 12.0297 12.4995 12.2767L10.8003 11.6954L9.86902 13.2699L11.2178 14.4127C11.1251 14.7968 11.0787 15.1594 11.0787 15.5007C11.0787 15.8419 11.1251 16.2045 11.2178 16.5886L9.86902 17.7314L10.8003 19.3059L12.4995 18.7247C12.7611 18.9716 13.0277 19.1687 13.2994 19.3159C13.5708 19.4634 13.8937 19.5909 14.2681 19.6986L14.581 21.462ZM15.5 18.084C14.7896 18.084 14.1815 17.831 13.6756 17.3251C13.1697 16.8192 12.9167 16.2111 12.9167 15.5007C12.9167 14.7902 13.1697 14.1821 13.6756 13.6762C14.1815 13.1703 14.7896 12.9173 15.5 12.9173C16.2105 12.9173 16.8186 13.1703 17.3245 13.6762C17.8304 14.1821 18.0834 14.7902 18.0834 15.5007C18.0834 16.2111 17.8304 16.8192 17.3245 17.3251C16.8186 17.831 16.2105 18.084 15.5 18.084ZM6.85588 26.4798C6.20338 26.4798 5.65108 26.2538 5.199 25.8017C4.74692 25.3496 4.52087 24.7973 4.52087 24.1448V6.85649C4.52087 6.20399 4.74692 5.65169 5.199 5.19961C5.65108 4.74753 6.20338 4.52148 6.85588 4.52148H24.1442C24.7967 4.52148 25.349 4.74753 25.8011 5.19961C26.2532 5.65169 26.4792 6.20399 26.4792 6.85649V24.1448C26.4792 24.7973 26.2532 25.3496 25.8011 25.8017C25.349 26.2538 24.7967 26.4798 24.1442 26.4798H6.85588ZM6.85588 24.5423H24.1442C24.2437 24.5423 24.3347 24.5009 24.4174 24.418C24.5003 24.3353 24.5417 24.2443 24.5417 24.1448V6.85649C24.5417 6.75704 24.5003 6.66597 24.4174 6.58331C24.3347 6.50042 24.2437 6.45898 24.1442 6.45898H6.85588C6.75643 6.45898 6.66536 6.50042 6.5827 6.58331C6.49982 6.66597 6.45837 6.75704 6.45837 6.85649V24.1448C6.45837 24.2443 6.49982 24.3353 6.5827 24.418C6.66536 24.5009 6.75643 24.5423 6.85588 24.5423Z" fill="#7D2838"/>
</svg>
