<?xml version="1.0" encoding="UTF-8"?>
<svg id="Camada_1" data-name="Camada 1" xmlns="http://www.w3.org/2000/svg" viewBox="0 0 122.06 122.06">
  <defs>
    <style>
      .cls-1 {
        fill: #7e2939;
      }
    </style>
  </defs>
  <path class="cls-1" d="M55.92,94.16h10.22l1.74-9.8c2.08-.6,3.88-1.31,5.38-2.13,1.51-.82,2.99-1.91,4.45-3.29l9.44,3.23,5.18-8.75-7.5-6.35c.52-2.14.77-4.15.77-6.05s-.26-3.91-.77-6.05l7.5-6.35-5.18-8.75-9.44,3.23c-1.45-1.37-2.94-2.47-4.45-3.29-1.51-.82-3.3-1.53-5.38-2.13l-1.74-9.8h-10.22l-1.74,9.8c-2.08.6-3.88,1.31-5.38,2.13-1.51.82-2.99,1.91-4.45,3.29l-9.44-3.23-5.18,8.75,7.5,6.35c-.52,2.14-.77,4.15-.77,6.05s.26,3.91.77,6.05l-7.5,6.35,5.18,8.75,9.44-3.23c1.45,1.37,2.94,2.47,4.45,3.29,1.51.82,3.3,1.53,5.38,2.13l1.74,9.8ZM61.03,75.39c-3.95,0-7.33-1.41-10.14-4.22s-4.22-6.19-4.22-10.14,1.41-7.33,4.22-10.14,6.19-4.22,10.14-4.22,7.33,1.41,10.14,4.22c2.81,2.81,4.22,6.19,4.22,10.14s-1.41,7.33-4.22,10.14c-2.81,2.81-6.19,4.22-10.14,4.22ZM12.98,122.06c-3.63,0-6.7-1.26-9.21-3.77-2.51-2.51-3.77-5.58-3.77-9.21V12.98c0-3.63,1.26-6.7,3.77-9.21S9.35,0,12.98,0h96.1c3.63,0,6.7,1.26,9.21,3.77,2.51,2.51,3.77,5.58,3.77,9.21v96.1c0,3.63-1.26,6.7-3.77,9.21s-5.58,3.77-9.21,3.77H12.98ZM12.98,111.29h96.1c.55,0,1.06-.23,1.52-.69.46-.46.69-.97.69-1.52V12.98c0-.55-.23-1.06-.69-1.52-.46-.46-.97-.69-1.52-.69H12.98c-.55,0-1.06.23-1.52.69-.46.46-.69.97-.69,1.52v96.1c0,.55.23,1.06.69,1.52.46.46.97.69,1.52.69Z"/>
</svg>