<?xml version="1.0" encoding="UTF-8"?>
<svg id="Camada_1" data-name="Camada 1" xmlns="http://www.w3.org/2000/svg" viewBox="0 0 158.74 122.06">
  <defs>
    <style>
      .cls-1 {
        fill: #7e2939;
      }
    </style>
  </defs>
  <path class="cls-1" d="M53.83,122.06c-2.45,0-4.55-.87-6.3-2.62-1.75-1.75-2.62-3.84-2.62-6.3v-17.83h24.69v-28.97c-5.66,1.19-11.45,1.01-17.39-.54-5.94-1.55-10.84-4.27-14.7-8.17v-12.55h-12.65L0,20.23c5.12-4.66,10.93-8.15,17.43-10.46,6.5-2.31,13.19-3.46,20.07-3.46,5.71,0,11.27.81,16.66,2.44,5.4,1.62,10.54,4.17,15.43,7.63V0h89.14v104.23c0,5.03-1.71,9.26-5.14,12.68-3.43,3.43-7.66,5.14-12.68,5.14H53.83ZM78.51,95.31h53.49v8.91c0,2.53.85,4.64,2.56,6.35,1.71,1.71,3.83,2.56,6.35,2.56s4.64-.85,6.35-2.56c1.71-1.71,2.56-3.83,2.56-6.35V8.91h-71.31v14.26l49.03,49.03v6.31h-6.31l-27.12-27.12-5.04,5.04c-1.74,1.74-3.44,3.19-5.12,4.37-1.67,1.18-3.49,2.21-5.44,3.1v31.4ZM28.66,36.17h17.76v17.45c3.04,1.87,5.87,3.15,8.49,3.82,2.62.67,5.16,1.01,7.63,1.01,4.06,0,7.75-.69,11.06-2.07,3.32-1.38,6.43-3.53,9.34-6.43l4.87-4.87-15.56-15.56c-4.77-4.77-10.11-8.34-16.03-10.72-5.92-2.38-12.15-3.57-18.7-3.57-4.34,0-8.57.57-12.67,1.7-4.1,1.13-7.78,2.6-11.02,4.41l14.85,14.84ZM123.08,104.23H53.83v8.91h71.96c-1.02-1.22-1.72-2.6-2.12-4.12-.39-1.52-.59-3.12-.59-4.8Z"/>
</svg>