<?xml version="1.0" encoding="UTF-8"?>
<svg id="Camada_1" data-name="Camada 1" xmlns="http://www.w3.org/2000/svg" viewBox="0 0 122.06 122.06">
  <defs>
    <style>
      .cls-1 {
        fill: #7e2939;
      }
    </style>
  </defs>
  <path class="cls-1" d="M51.91,88.35l43.19-43.19-6.77-6.77-36.42,36.42-18.31-18.31-6.77,6.77,25.08,25.08ZM61.04,122.06c-8.44,0-16.38-1.6-23.8-4.81-7.43-3.2-13.89-7.55-19.38-13.04-5.49-5.49-9.84-11.95-13.05-19.37-3.2-7.42-4.81-15.36-4.81-23.8s1.6-16.38,4.81-23.8c3.2-7.43,7.55-13.89,13.04-19.38,5.49-5.49,11.95-9.84,19.37-13.05C44.64,1.6,52.58,0,61.02,0s16.38,1.6,23.8,4.81c7.43,3.2,13.89,7.55,19.38,13.04,5.49,5.49,9.84,11.95,13.05,19.37,3.2,7.42,4.81,15.36,4.81,23.8s-1.6,16.38-4.81,23.8c-3.2,7.43-7.55,13.89-13.04,19.38-5.49,5.49-11.95,9.84-19.37,13.05-7.42,3.2-15.36,4.81-23.8,4.81ZM61.03,112.42c14.35,0,26.5-4.98,36.46-14.94,9.96-9.96,14.94-22.11,14.94-36.46s-4.98-26.5-14.94-36.46c-9.96-9.96-22.11-14.94-36.46-14.94s-26.5,4.98-36.46,14.94-14.94,22.11-14.94,36.46,4.98,26.5,14.94,36.46c9.96,9.96,22.11,14.94,36.46,14.94Z"/>
</svg>