<svg width="30" height="30" viewBox="0 0 30 30" fill="none" xmlns="http://www.w3.org/2000/svg">
<path d="M20.2644 24.375H21.37V20H20.2644V24.375ZM20.8172 18.8581C20.9678 18.8663 21.0976 18.8138 21.2066 18.7006C21.3155 18.5877 21.37 18.4559 21.37 18.3053C21.37 18.1547 21.3135 18.0249 21.2006 17.9159C21.0877 17.807 20.9599 17.7525 20.8172 17.7525C20.6666 17.7525 20.5368 17.807 20.4278 17.9159C20.3189 18.0249 20.2644 18.1547 20.2644 18.3053C20.2644 18.448 20.3189 18.5758 20.4278 18.6888C20.5368 18.8017 20.6666 18.8581 20.8172 18.8581ZM6.25 5V12.7284V12.6922V25V5ZM9.0625 17.1875H13.4038C13.585 16.8365 13.7885 16.5047 14.0144 16.1922C14.2404 15.8797 14.4889 15.5865 14.7597 15.3125H9.0625V17.1875ZM9.0625 22.1875H12.5216C12.4751 21.875 12.4519 21.5645 12.4519 21.2559C12.4519 20.9476 12.4711 20.6331 12.5097 20.3125H9.0625V22.1875ZM6.63469 26.875C6.00323 26.875 5.46875 26.6562 5.03125 26.2188C4.59375 25.7812 4.375 25.2468 4.375 24.6153V5.38469C4.375 4.75323 4.59375 4.21875 5.03125 3.78125C5.46875 3.34375 6.00323 3.125 6.63469 3.125H16.5625L23.125 9.6875V13.0312C22.8173 12.9383 22.5092 12.8667 22.2006 12.8162C21.8921 12.7656 21.5752 12.7364 21.25 12.7284V10.625H15.625V5H6.63469C6.53844 5 6.45031 5.0401 6.37031 5.12031C6.2901 5.20031 6.25 5.28844 6.25 5.38469V24.6153C6.25 24.7116 6.2901 24.7997 6.37031 24.8797C6.45031 24.9599 6.53844 25 6.63469 25H13.4519C13.6329 25.359 13.8365 25.6947 14.0625 26.0072C14.2885 26.3197 14.5409 26.609 14.8197 26.875H6.63469ZM20.8172 15.4328C22.3782 15.4328 23.7059 15.9801 24.8003 17.0747C25.8949 18.1691 26.4422 19.4968 26.4422 21.0578C26.4422 22.6186 25.8949 23.9464 24.8003 25.0409C23.7059 26.1353 22.3782 26.6825 20.8172 26.6825C19.2564 26.6825 17.9286 26.1353 16.8341 25.0409C15.7395 23.9464 15.1922 22.6186 15.1922 21.0578C15.1922 19.4968 15.7395 18.1691 16.8341 17.0747C17.9286 15.9801 19.2564 15.4328 20.8172 15.4328Z" fill="#7D2838"/>
</svg>
