<?xml version="1.0" encoding="UTF-8"?>
<svg id="Camada_1" data-name="Camada 1" xmlns="http://www.w3.org/2000/svg" viewBox="0 0 113.41 122.06">
  <defs>
    <style>
      .cls-1 {
        fill: #7e2939;
      }
    </style>
  </defs>
  <path class="cls-1" d="M81.66,109.21h5.68v-22.48h-5.68v22.48ZM84.5,80.85c.77.04,1.44-.23,2-.81.56-.58.84-1.26.84-2.03s-.29-1.44-.87-2c-.58-.56-1.24-.84-1.97-.84-.77,0-1.44.28-2,.84-.56.56-.84,1.23-.84,2,0,.73.28,1.39.84,1.97.56.58,1.23.87,2,.87ZM9.64,9.64v39.72-.19,63.25V9.64ZM24.09,72.27h22.31c.93-1.8,1.98-3.51,3.14-5.12,1.16-1.61,2.44-3.11,3.83-4.52h-29.28v9.64ZM24.09,97.97h17.78c-.24-1.61-.36-3.2-.36-4.79s.1-3.2.3-4.85h-17.72v9.64ZM11.61,122.06c-3.25,0-5.99-1.12-8.24-3.37-2.25-2.25-3.37-5-3.37-8.24V11.61c0-3.25,1.12-5.99,3.37-8.24S8.37,0,11.61,0h51.02l33.73,33.73v17.18c-1.58-.48-3.16-.85-4.75-1.1-1.59-.26-3.21-.41-4.89-.45v-10.81h-28.91V9.64H11.61c-.49,0-.95.21-1.36.62-.41.41-.62.86-.62,1.36v98.83c0,.49.21.95.62,1.36.41.41.86.62,1.36.62h35.03c.93,1.84,1.98,3.57,3.14,5.18s2.46,3.09,3.89,4.46H11.61ZM84.5,63.25c8.02,0,14.85,2.81,20.47,8.44,5.63,5.62,8.44,12.45,8.44,20.47s-2.81,14.84-8.44,20.47c-5.62,5.62-12.45,8.44-20.47,8.44s-14.84-2.81-20.47-8.44c-5.63-5.62-8.44-12.45-8.44-20.47s2.81-14.85,8.44-20.47c5.62-5.63,12.45-8.44,20.47-8.44Z"/>
</svg>