<svg width="35" height="35" viewBox="0 0 35 35" fill="none" xmlns="http://www.w3.org/2000/svg">
<path d="M8.80615 28.1202C8.4051 28.1202 8.06179 27.9774 7.7762 27.6918C7.49061 27.4062 7.34781 27.0629 7.34781 26.6619V23.7452H11.3863V19.0056C10.4607 19.2001 9.51234 19.1707 8.54109 18.9174C7.56984 18.6639 6.76825 18.2184 6.1363 17.5808V15.5279H4.06656L0 11.4617C0.837569 10.6987 1.78828 10.1284 2.85214 9.75068C3.91599 9.37297 5.01071 9.18411 6.1363 9.18411C7.07085 9.18411 7.97939 9.31694 8.86193 9.5826C9.74471 9.84802 10.5862 10.264 11.3863 10.8306V8.15234H25.9696V25.2035C25.9696 26.0263 25.6891 26.718 25.1282 27.2787C24.5674 27.8397 23.8757 28.1202 23.053 28.1202H8.80615ZM12.8446 23.7452H21.5946V25.2035C21.5946 25.6167 21.7344 25.9631 22.0139 26.2426C22.2934 26.5221 22.6398 26.6619 23.053 26.6619C23.4662 26.6619 23.8125 26.5221 24.092 26.2426C24.3715 25.9631 24.5113 25.6167 24.5113 25.2035V9.61068H12.8446V11.944L20.8655 19.9648V20.9966H19.8333L15.3967 16.56L14.572 17.3847C14.2879 17.6688 14.0089 17.9071 13.7349 18.0996C13.461 18.2924 13.1643 18.4617 12.8446 18.6075V23.7452ZM4.68927 14.0695H7.59464V16.9246C8.09193 17.2313 8.5547 17.4399 8.98297 17.5502C9.41099 17.6603 9.82698 17.7154 10.2309 17.7154C10.8947 17.7154 11.4981 17.6023 12.0411 17.3763C12.5843 17.15 13.0934 16.7994 13.5683 16.3245L14.3646 15.5279L11.8183 12.9816C11.0381 12.2019 10.164 11.6171 9.19589 11.2272C8.22755 10.8374 7.20769 10.6424 6.1363 10.6424C5.42585 10.6424 4.73496 10.7351 4.06365 10.9203C3.39257 11.1055 2.79149 11.3457 2.26042 11.641L4.68927 14.0695ZM20.1363 25.2035H8.80615V26.6619H20.5793C20.413 26.4618 20.2976 26.2373 20.2329 25.9881C20.1685 25.739 20.1363 25.4775 20.1363 25.2035Z" fill="#7D2838"/>
</svg>
