<?xml version="1.0" encoding="UTF-8"?>
<svg id="Camada_1" data-name="Camada 1" xmlns="http://www.w3.org/2000/svg" viewBox="0 0 122.61 122.06">
  <defs>
    <style>
      .cls-1 {
        fill: #7e2939;
      }
    </style>
  </defs>
  <path class="cls-1" d="M61.31,122.06c-11.33,0-21.62-2.81-30.86-8.42-9.24-5.61-16.48-13.13-21.73-22.56v17.34H0v-31.97h31.97v8.72H15.46c4.2,8.47,10.41,15.28,18.63,20.43,8.22,5.16,17.29,7.73,27.22,7.73,7.12,0,13.79-1.31,20.02-3.95,6.23-2.63,11.69-6.22,16.37-10.77,4.68-4.55,8.44-9.92,11.27-16.12,2.84-6.2,4.36-12.87,4.59-20.02h8.72c-.19,8.26-1.91,16-5.18,23.23-3.27,7.23-7.65,13.54-13.14,18.95-5.5,5.4-11.9,9.65-19.22,12.75-7.32,3.1-15.13,4.65-23.42,4.65ZM57.19,100.6v-7.33c-4.25-.99-7.79-2.76-10.61-5.3-2.82-2.54-4.98-5.97-6.49-10.28l7.35-3c1.39,3.79,3.37,6.66,5.95,8.63,2.58,1.97,5.51,2.95,8.78,2.95s6.28-.82,8.91-2.48c2.63-1.65,3.94-4.3,3.94-7.94,0-3.03-1.13-5.45-3.39-7.25-2.26-1.8-6.48-3.83-12.66-6.1-5.98-2.15-10.29-4.55-12.93-7.21-2.65-2.66-3.97-6.17-3.97-10.54,0-3.75,1.35-7.18,4.06-10.29,2.7-3.11,6.49-5.1,11.34-5.96v-7.04h7.94v7.04c3.26.25,6.27,1.48,9.01,3.68,2.75,2.2,4.73,4.85,5.94,7.94l-7.18,2.88c-1-2.15-2.43-3.94-4.28-5.37-1.86-1.43-4.3-2.14-7.32-2.14-3.61,0-6.45.86-8.5,2.57-2.05,1.71-3.08,3.94-3.08,6.68s1,4.88,3.01,6.4c2,1.53,6.06,3.33,12.17,5.42,6.98,2.52,11.66,5.34,14.06,8.47,2.4,3.13,3.6,6.73,3.6,10.8,0,2.77-.51,5.21-1.54,7.3-1.02,2.09-2.36,3.86-4.02,5.28-1.65,1.43-3.54,2.55-5.65,3.38-2.11.83-4.29,1.41-6.52,1.74v7.04h-7.94ZM.34,59.57c.26-8.44,2.04-16.29,5.35-23.53,3.31-7.25,7.72-13.55,13.26-18.92,5.53-5.37,11.93-9.56,19.2-12.59C45.4,1.51,53.12,0,61.31,0c11.22,0,21.51,2.82,30.85,8.45,9.35,5.63,16.59,13.21,21.73,22.75V13.64h8.72v31.97h-31.97v-8.72h16.51c-4.09-8.32-10.25-15.09-18.49-20.32-8.24-5.23-17.36-7.85-27.36-7.85-6.97,0-13.56,1.3-19.77,3.89-6.21,2.59-11.68,6.15-16.4,10.66-4.72,4.51-8.52,9.87-11.41,16.06-2.89,6.2-4.45,12.95-4.67,20.25H.34Z"/>
</svg>