<svg width="22" height="21" viewBox="0 0 22 21" fill="none" xmlns="http://www.w3.org/2000/svg">
<path d="M10.548 21C8.598 21 6.82842 20.5173 5.23925 19.5518C3.65025 18.5864 2.40383 17.2928 1.5 15.671V18.6538H0V13.1538H5.5V14.6538H2.6595C3.3825 16.1103 4.45108 17.2821 5.86525 18.1693C7.27942 19.0564 8.84033 19.5 10.548 19.5C11.7723 19.5 12.9207 19.2738 13.9932 18.8212C15.0656 18.3686 16.0043 17.7509 16.8095 16.9683C17.6147 16.1856 18.2612 15.2613 18.749 14.1953C19.2368 13.1293 19.5 11.9808 19.5385 10.75H21.0382C21.0063 12.1705 20.7092 13.5026 20.147 14.7462C19.5848 15.9897 18.831 17.0763 17.8855 18.0058C16.94 18.9352 15.8374 19.6667 14.5778 20.2C13.3181 20.7333 11.9748 21 10.548 21ZM9.84025 17.3078V16.0462C9.10825 15.8756 8.49958 15.5717 8.01425 15.1345C7.52908 14.6973 7.157 14.1077 6.898 13.3655L8.16325 12.85C8.40175 13.5013 8.74317 13.9963 9.1875 14.3348C9.63167 14.6731 10.1352 14.8422 10.698 14.8422C11.2672 14.8422 11.7781 14.7003 12.2308 14.4163C12.6832 14.1324 12.9095 13.677 12.9095 13.05C12.9095 12.5282 12.715 12.1125 12.326 11.803C11.9368 11.4933 11.2108 11.1436 10.148 10.7537C9.11983 10.3846 8.37817 9.97117 7.923 9.5135C7.46783 9.05583 7.24025 8.45133 7.24025 7.7C7.24025 7.05517 7.473 6.46475 7.9385 5.92875C8.40383 5.39292 9.05442 5.05125 9.89025 4.90375V3.69225H11.2557V4.90375C11.8172 4.94742 12.3342 5.15867 12.8067 5.5375C13.2791 5.91633 13.6197 6.37175 13.8287 6.90375L12.5942 7.4C12.4224 7.0295 12.1768 6.7215 11.8575 6.476C11.5383 6.2305 11.1185 6.10775 10.598 6.10775C9.97617 6.10775 9.48867 6.25517 9.1355 6.55C8.78233 6.84483 8.60575 7.22817 8.60575 7.7C8.60575 8.17183 8.77817 8.53917 9.123 8.802C9.46783 9.06483 10.1659 9.37575 11.2172 9.73475C12.4173 10.1681 13.2237 10.6539 13.6365 11.1923C14.0493 11.7308 14.2557 12.35 14.2557 13.05C14.2557 13.527 14.1676 13.9456 13.9912 14.3057C13.8149 14.6661 13.5845 14.969 13.3 15.2145C13.0153 15.46 12.6912 15.6539 12.3278 15.7962C11.9642 15.9384 11.5903 16.0384 11.2057 16.0963V17.3078H9.84025ZM0.0577499 10.25C0.102583 8.7975 0.40925 7.44783 0.97775 6.201C1.54642 4.95417 2.30667 3.86925 3.2585 2.94625C4.2105 2.02308 5.3115 1.30125 6.5615 0.780749C7.8115 0.26025 9.14033 0 10.548 0C12.4788 0 14.2484 0.484333 15.8567 1.453C17.4651 2.4215 18.7115 3.72633 19.596 5.3675V2.34625H21.096V7.84625H15.596V6.34625H18.4365C17.7327 4.91542 16.6721 3.75 15.2548 2.85C13.8374 1.95 12.2685 1.5 10.548 1.5C9.34933 1.5 8.21533 1.72308 7.146 2.16925C6.07683 2.61542 5.1365 3.22658 4.325 4.00275C3.5135 4.77908 2.859 5.70025 2.3615 6.76625C1.864 7.83225 1.596 8.9935 1.5575 10.25H0.0577499Z" fill="#7D2838"/>
</svg>
